# xmcd
# 
# Track frame offsets:
#     150
#     9577
#     22672
#     31457
#     45472
#     58420
#     69997
#     84132
#     92585
#     103475
# 
# Disc length: 1546
# 
# Revision: 0
# Processed by: cddbd v1.5.2PL0 Copyright (c) Steve Scherf et al.
# Submitted via: fre:ac v1.0.17
# 
DISCID=7306080a
DTITLE=Jerry Lee Lewis - Best of the Best Country
DYEAR=0
DGENRE=Country
TTITLE0=One Minute Past Eternity
TTITLE1=You Win Again
TTITLE2=Invitation to Your Party
TTITLE3=I'll Make it All Up to You
TTITLE4=Fools Like Me
TTITLE5=I Can't Seem to Say Goodbye
TTITLE6=Cold Cold Heart
TTITLE7=Save the Last Dance for Me
TTITLE8=I Could Never Be Ashamed Of You
TTITLE9=Wild Side of Life
EXTD=
EXTT0=
EXTT1=
EXTT2=
EXTT3=
EXTT4=
EXTT5=
EXTT6=
EXTT7=
EXTT8=
EXTT9=
PLAYORDER=
